<svg width="426" height="378" viewBox="0 0 426 378" xmlns="http://www.w3.org/2000/svg"><title>Slice 1</title><g fill="none" fill-rule="evenodd"><g><g><path d="M167.925 33.32c18.817-32.423 49.333-32.423 68.15 0l157.83 271.905c18.818 32.423 3.72 58.705-33.727 58.705H43.812c-37.436 0-52.535-26.282-33.718-58.705L167.924 33.32" fill="#000"/><path d="M189.624 40.108c6.836-11.878 17.916-11.878 24.752 0l160.957 279.69c6.836 11.87 1.287 21.493-12.385 21.493H41.052c-13.672 0-19.22-9.623-12.385-21.492l160.957-279.69" fill="#DD2E44"/><path d="M207.972 252.352c1.305-12.103 2.61-22.422 3.915-30.91 1.305-8.49 2.545-15.813 3.672-22 1.125-6.188 2.186-11.53 3.172-15.99.958-4.452 1.803-8.668 2.507-12.66.713-3.96 1.24-8.027 1.624-12.13.394-4.103.6-8.883.6-14.254 0-4.948-.666-9.37-1.97-13.333-1.344-3.925-3.043-7.25-5.128-9.934-2.112-2.694-4.516-4.778-7.23-6.262-2.723-1.455-5.474-2.197-8.263-2.197-2.826 0-5.577.743-8.3 2.198-2.723 1.484-5.118 3.568-7.202 6.263-2.12 2.686-3.81 6.01-5.116 9.935-1.343 3.963-1.982 8.385-1.982 13.333 0 5.37.18 10.15.564 14.254.394 4.103.957 8.17 1.662 12.13.704 3.992 1.55 8.208 2.572 12.66.996 4.46 2.085 9.802 3.22 15.99 1.128 6.187 2.33 13.54 3.672 22.065 1.306 8.563 2.61 18.817 3.953 30.845h14.057" fill="#000"/><path d="M179.4 288.1c0-11.87 9.614-21.504 21.473-21.504 11.85 0 21.465 9.634 21.465 21.503 0 11.877-9.615 21.51-21.465 21.51-11.86 0-21.474-9.633-21.474-21.51" fill="#000"/></g></g></g></svg>